<svg xmlns="http://www.w3.org/2000/svg" width="600" height="400" viewBox="0 0 600 400" fill="none">
  <rect width="600" height="400" fill="white"/>
  <rect x="100" y="50" width="400" height="300" rx="8" fill="#F3F4F6"/>
  <rect x="130" y="80" width="340" height="240" rx="4" fill="white" stroke="#D1D5DB" stroke-width="1"/>
  
  <!-- Bookshelf -->
  <rect x="150" y="100" width="300" height="200" rx="2" fill="#F9FAFB"/>
  
  <!-- Books on shelf 1 -->
  <rect x="160" y="120" width="20" height="80" rx="1" fill="#3B82F6"/>
  <rect x="185" y="120" width="15" height="80" rx="1" fill="#10B981"/>
  <rect x="205" y="120" width="25" height="80" rx="1" fill="#F59E0B"/>
  <rect x="235" y="120" width="18" height="80" rx="1" fill="#EF4444"/>
  <rect x="258" y="120" width="22" height="80" rx="1" fill="#8B5CF6"/>
  <rect x="285" y="120" width="15" height="80" rx="1" fill="#EC4899"/>
  <rect x="305" y="120" width="28" height="80" rx="1" fill="#3B82F6"/>
  <rect x="338" y="120" width="17" height="80" rx="1" fill="#10B981"/>
  <rect x="360" y="120" width="20" height="80" rx="1" fill="#F59E0B"/>
  <rect x="385" y="120" width="25" height="80" rx="1" fill="#8B5CF6"/>
  <rect x="415" y="120" width="15" height="80" rx="1" fill="#EF4444"/>
  
  <!-- Shelf divider -->
  <rect x="150" y="205" width="300" height="5" fill="#E5E7EB"/>
  
  <!-- Books on shelf 2 -->
  <rect x="160" y="215" width="25" height="70" rx="1" fill="#8B5CF6"/>
  <rect x="190" y="215" width="20" height="70" rx="1" fill="#EF4444"/>
  <rect x="215" y="215" width="18" height="70" rx="1" fill="#10B981"/>
  <rect x="238" y="215" width="22" height="70" rx="1" fill="#F59E0B"/>
  <rect x="265" y="215" width="28" height="70" rx="1" fill="#3B82F6"/>
  <rect x="298" y="215" width="15" height="70" rx="1" fill="#EC4899"/>
  <rect x="318" y="215" width="20" height="70" rx="1" fill="#8B5CF6"/>
  <rect x="343" y="215" width="17" height="70" rx="1" fill="#10B981"/>
  <rect x="365" y="215" width="25" height="70" rx="1" fill="#EF4444"/>
  <rect x="395" y="215" width="15" height="70" rx="1" fill="#F59E0B"/>
  <rect x="415" y="215" width="20" height="70" rx="1" fill="#3B82F6"/>
  
  <!-- Person silhouette -->
  <circle cx="200" y="350" r="20" fill="#3B82F6" opacity="0.8"/>
  <rect x="190" y="375" width="20" height="25" rx="5" fill="#3B82F6" opacity="0.8"/>
  
  <!-- Book in hand -->
  <rect x="220" y="350" width="30" height="20" rx="2" fill="#8B5CF6" opacity="0.8"/>
  
  <!-- Decorative elements -->
  <circle cx="400" y="350" r="15" fill="#F59E0B" opacity="0.5"/>
  <circle cx="430" y="320" r="10" fill="#10B981" opacity="0.5"/>
  <circle cx="460" y="350" r="20" fill="#EF4444" opacity="0.5"/>
  
  <!-- Library logo -->
  <rect x="50" y="50" width="40" height="40" rx="20" fill="#3B82F6"/>
  <path d="M65 60V80M65 60C63 60 57 60 57 70C57 80 63 80 65 80M65 60C67 60 73 60 73 70C73 80 67 80 65 80" stroke="white" stroke-width="2"/>
</svg>